<?xml version="1.0" ?><!DOCTYPE svg  PUBLIC '-//W3C//DTD SVG 20010904//EN'  'http://www.w3.org/TR/2001/REC-SVG-20010904/DTD/svg10.dtd' [
	<!ENTITY stroke_color "#666666">
	<!ENTITY fill_color "#ffffff">
]><svg height="111.000000pt" preserveAspectRatio="xMidYMid meet" version="1.0" viewBox="0 0 110.000000 111.000000" width="110.000000pt" xmlns="http://www.w3.org/2000/svg">
<metadata>
Created by potrace 1.10, written by Peter Selinger 2001-2011
</metadata>
<g fill="&stroke_color;" stroke="none" transform="translate(0.000000,111.000000) scale(0.100000,-0.100000)">
<path d="M84 1081 c-43 -26 -74 -69 -74 -102 0 -38 10 -36 39 6 13 19 45 48 72 65 27 16 49 34 49 40 0 17 -53 11 -86 -9z"/>
<path d="M936 1091 c-4 -5 11 -19 31 -32 21 -12 57 -43 80 -68 l42 -46 1 32 c0 36 -37 86 -81 108 -32 17 -65 19 -73 6z"/>
<path d="M329 1000 c-50 -27 -104 -92 -119 -144 -19 -69 -1 -94 200 -280 111 -102 135 -118 174 -118 68 0 168 91 189 171 11 45 -22 94 -145 214 -183 177 -222 198 -299 157z m94 -14 c18 -7 98 -78 180 -157 126 -123 147 -148 147 -174 0 -64 -107 -175 -169 -175 -34 0 -330 270 -351 321 -10 22 -8 34 8 65 30 59 102 123 150 133 1 1 17 -5 35 -13z"/>
<path d="M310 920 c-42 -42 -56 -76 -46 -114 6 -24 203 -219 261 -259 16 -11 -8 15 -55 58 -180 168 -200 189 -200 224 0 47 71 121 115 121 31 0 92 -39 135 -88 33 -37 142 -135 115 -102 -31 35 -109 109 -178 168 -54 46 -95 44 -147 -8z"/>
<path d="M422 873 c-36 -17 -67 -56 -77 -94 -5 -22 -1 -26 32 -38 46 -17 126 -91 148 -138 l16 -34 29 21 c29 21 95 98 89 104 -16 14 -69 34 -69 27 0 -12 -59 -81 -69 -81 -3 0 -15 15 -25 34 -10 19 -31 40 -47 46 -36 16 -36 29 0 64 l29 28 47 -47 c63 -64 71 -48 8 18 -27 29 -53 65 -57 80 -7 31 -10 32 -54 10z m28 -46 c0 -17 -44 -59 -53 -50 -12 11 -8 21 15 43 25 23 38 26 38 7z"/>
<path d="M689 687 l20 -33 -20 -42 c-13 -25 -38 -53 -67 -72 -48 -31 -50 -40 -4 -16 39 21 81 68 91 103 7 24 5 38 -10 62 -10 17 -21 31 -25 31 -3 0 4 -15 15 -33z"/>
<path d="M818 570 c-16 -18 -16 -20 2 -42 15 -19 22 -21 37 -12 23 14 28 41 13 59 -17 20 -32 19 -52 -5z m41 -36 c-14 -14 -17 -14 -29 0 -10 13 -10 19 0 32 12 14 15 14 29 0 14 -15 14 -17 0 -32z"/>
<path d="M302 527 c-73 -55 -100 -120 -71 -177 23 -48 217 -218 271 -239 59 -22 156 63 166 146 l5 45 -96 94 c-106 104 -177 154 -217 154 -14 0 -40 -11 -58 -23z m121 -29 c73 -58 199 -175 217 -203 23 -36 17 -56 -39 -115 -63 -68 -79 -66 -177 16 -111 94 -175 156 -184 179 -16 42 72 155 121 155 12 0 40 -15 62 -32z"/>
<path d="M296 460 c-20 -23 -36 -50 -35 -63 1 -17 3 -15 10 10 11 36 61 83 90 83 11 0 30 -5 42 -11 21 -10 21 -10 3 5 -35 28 -70 20 -110 -24z"/>
<path d="M374 422 c-22 -18 -44 -53 -44 -71 0 -6 15 -17 33 -25 34 -15 105 -79 122 -110 10 -17 11 -17 35 2 14 11 33 34 43 51 l18 31 -30 13 c-38 16 -107 80 -116 107 -8 24 -33 25 -61 2z m81 -61 c3 -11 19 -26 35 -33 35 -15 35 -16 14 -46 -19 -27 -40 -28 -47 -2 -3 11 -18 25 -34 32 -15 7 -29 13 -31 14 -2 1 4 14 13 28 20 31 41 34 50 7z"/>
<path d="M340 297 c0 -2 24 -24 53 -48 28 -24 46 -36 38 -26 -16 20 -91 81 -91 74z"/>
<path d="M574 188 l-29 -33 33 29 c17 17 32 31 32 33 0 8 -8 1 -36 -29z"/>
<path d="M826 453 c-22 -23 -28 -25 -49 -16 -21 10 -28 8 -46 -8 -25 -24 -27 -42 -5 -63 21 -22 47 -20 69 4 17 18 20 19 41 5 31 -20 37 -19 68 11 32 33 32 35 1 68 -30 33 -48 33 -79 -1z m68 -12 c17 -18 16 -20 -1 -40 -22 -26 -28 -26 -52 -2 -17 17 -18 21 -5 40 19 26 36 27 58 2z m-113 -29 c19 -19 19 -19 -1 -37 -19 -17 -21 -17 -40 0 -19 17 -19 19 -4 37 21 22 20 22 45 0z"/>
<path d="M966 369 c-11 -17 -12 -25 -3 -40 16 -25 44 -24 57 2 9 16 8 25 -6 40 -22 24 -29 24 -48 -2z m48 -14 c2 -7 -2 -19 -10 -26 -20 -16 -38 2 -29 29 6 22 30 20 39 -3z"/>
<path d="M10 120 c0 -20 12 -43 36 -70 29 -32 43 -40 72 -40 l35 0 -61 60 c-34 33 -62 65 -62 70 0 6 -4 10 -10 10 -5 0 -10 -13 -10 -30z"/>
<path d="M1030 92 c-30 -31 -63 -62 -73 -67 -15 -8 -12 -10 20 -13 32 -2 45 3 71 29 32 32 47 64 40 93 -2 10 -20 -3 -58 -42z"/>
<path d="M705 120 c-12 -13 -25 -18 -37 -14 -42 13 -66 -46 -27 -66 16 -9 24 -8 38 4 12 11 27 14 48 10 26 -5 34 -2 49 21 18 27 18 28 -5 46 -30 24 -43 24 -66 -1z m59 -13 c16 -25 -16 -56 -38 -37 -19 15 -20 32 -4 48 15 15 28 11 42 -11z m-87 -27 c2 -8 -1 -22 -7 -30 -8 -13 -11 -13 -25 1 -9 9 -13 23 -9 33 8 20 38 17 41 -4z"/>
</g>
</svg>