<?xml version="1.0" ?><!DOCTYPE svg  PUBLIC '-//W3C//DTD SVG 1.1//EN'  'http://www.w3.org/Graphics/SVG/1.1/DTD/svg11.dtd' [
	<!ENTITY stroke_color "#666666">
	<!ENTITY fill_color "#ffffff">
]><svg height="72.000000pt" id="svg3237" inkscape:version="0.48.4 r9939" preserveAspectRatio="xMidYMid meet" sodipodi:docname="FLdOssb401.svg" version="1.0" viewBox="0 0 72.000000 72.000000" width="72.000000pt" xmlns="http://www.w3.org/2000/svg" xmlns:cc="http://creativecommons.org/ns#" xmlns:dc="http://purl.org/dc/elements/1.1/" xmlns:inkscape="http://www.inkscape.org/namespaces/inkscape" xmlns:rdf="http://www.w3.org/1999/02/22-rdf-syntax-ns#" xmlns:sodipodi="http://sodipodi.sourceforge.net/DTD/sodipodi-0.dtd" xmlns:svg="http://www.w3.org/2000/svg">
  <defs id="defs3275"/>
  <sodipodi:namedview bordercolor="#666666" borderopacity="1" gridtolerance="10" guidetolerance="10" id="namedview3273" inkscape:current-layer="svg3237" inkscape:cx="45" inkscape:cy="45" inkscape:pageopacity="0" inkscape:pageshadow="2" inkscape:window-height="744" inkscape:window-maximized="1" inkscape:window-width="1301" inkscape:window-x="65" inkscape:window-y="24" inkscape:zoom="2.6222222" objecttolerance="10" pagecolor="#ffffff" showgrid="false"/>
  <metadata id="metadata3239">
Created by potrace 1.10, written by Peter Selinger 2001-2011
<rdf:RDF>
  <cc:Work rdf:about="">
    <dc:format>image/svg+xml</dc:format>
    <dc:type rdf:resource="http://purl.org/dc/dcmitype/StillImage"/>
  </cc:Work>
</rdf:RDF>
</metadata>
  <g fill="&stroke_color;" id="g3241" stroke="none" transform="translate(0.000000,72.000000) scale(0.100000,-0.100000)">
    <path d="M44 676 l-34 -34 0 -281 c0 -299 4 -326 49 -351 12 -6 130 -10 309 -10 l289 0 27 25 c14 13 26 34 26 47 0 13 1 149 1 303 l0 280 -33 28 -32 27 -284 0 -284 0 -34 -34z m620 -21 l26 -24 0 -281 0 -281 -26 -24 -27 -25 -278 0 -278 0 -20 26 c-20 26 -21 39 -21 306 l0 279 25 24 24 25 274 0 274 0 27 -25z" id="path3243"/>
    <path d="M222 653 c-7 -3 -27 -18 -44 -33 -23 -21 -32 -39 -35 -74 -6 -45 -5 -45 63 -111 37 -36 72 -65 76 -65 4 0 8 -7 8 -15 0 -8 7 -15 15 -15 8 0 15 -4 15 -9 0 -5 14 -15 32 -24 27 -13 36 -13 57 -2 59 31 105 102 91 140 -8 22 -111 131 -173 183 -36 30 -71 39 -105 25z m115 -61 c83 -72 153 -147 153 -164 0 -24 -50 -87 -81 -104 -30 -15 -31 -15 -77 23 -93 76 -182 168 -182 188 0 37 73 111 112 114 4 1 38 -25 75 -57z" id="path3245"/>
    <path d="M204 596 c-38 -38 -42 -60 -18 -94 23 -34 184 -172 200 -172 22 0 84 69 84 93 0 29 -182 207 -211 207 -12 0 -36 -15 -55 -34z m129 -32 c81 -73 127 -124 127 -142 0 -8 -16 -30 -35 -49 l-35 -35 -30 19 c-51 32 -180 163 -180 183 0 23 53 80 74 80 9 0 44 -25 79 -56z" id="path3247"/>
    <path d="M262 555 c-41 -34 -47 -63 -16 -71 13 -3 44 -28 69 -56 37 -41 47 -48 63 -39 27 14 58 64 43 69 -25 8 -96 76 -104 98 -11 30 -18 30 -55 -1z m24 -33 c-18 -18 -31 -10 -23 12 4 10 13 13 22 9 15 -5 15 -7 1 -21z m78 -82 c-20 -20 -20 -20 -54 15 -33 34 -33 35 -15 55 18 20 18 20 54 -15 35 -35 35 -36 15 -55z" id="path3249"/>
    <path d="M530 374 c-11 -12 -10 -18 3 -32 16 -15 18 -15 34 0 13 14 14 20 3 32 -7 9 -16 16 -20 16 -4 0 -13 -7 -20 -16z m30 -14 c0 -5 -4 -10 -10 -10 -5 0 -10 5 -10 10 0 6 5 10 10 10 6 0 10 -4 10 -10z" id="path3251"/>
    <path d="M176 320 c-20 -22 -36 -49 -36 -59 0 -20 67 -90 149 -156 60 -49 89 -42 134 27 9 15 17 36 17 47 0 11 -36 53 -86 100 -103 97 -123 102 -178 41z m131 -18 c32 -27 73 -65 91 -86 31 -36 32 -38 17 -66 -22 -43 -60 -66 -88 -52 -41 19 -167 143 -167 164 0 21 60 88 78 88 6 0 37 -22 69 -48z" id="path3253"/>
    <path d="M212 323 c-7 -2 -17 -14 -23 -26 -11 -21 -10 -21 14 2 18 17 33 22 49 17 31 -8 148 -120 148 -141 0 -9 -15 -31 -32 -48 -23 -21 -26 -27 -10 -18 31 16 55 56 48 79 -9 26 -143 142 -164 141 -9 0 -23 -3 -30 -6z" id="path3255"/>
    <path d="M236 268 c-18 -26 -21 -48 -6 -48 6 0 31 -19 55 -41 48 -44 61 -43 86 3 8 15 5 20 -15 28 -13 5 -37 25 -53 44 -33 42 -46 44 -67 14z m87 -54 c14 -8 15 -13 5 -26 -12 -16 -15 -15 -41 8 -24 21 -27 27 -16 40 11 14 14 14 23 2 6 -8 19 -19 29 -24z" id="path3257"/>
    <path d="M170 261 c0 -15 80 -95 132 -132 49 -35 31 -15 -38 42 -36 30 -72 65 -80 79 -7 14 -13 18 -14 11z" id="path3259"/>
    <path d="M535 300 c-13 -14 -22 -17 -30 -10 -9 8 -18 6 -29 -5 -21 -21 -20 -28 3 -49 16 -15 20 -15 31 -1 7 8 25 14 42 12 42 -3 59 24 34 52 -24 26 -28 26 -51 1z m44 -14 c8 -10 8 -16 -3 -25 -10 -9 -16 -8 -26 3 -12 15 -6 36 9 36 5 0 14 -6 20 -14z m-73 -17 c3 -6 2 -15 -2 -19 -12 -12 -38 5 -30 19 9 14 23 14 32 0z" id="path3261"/>
    <path d="M620 244 c-11 -12 -10 -18 3 -32 16 -15 18 -15 34 0 13 14 14 20 3 32 -16 20 -24 20 -40 0z m40 -14 c0 -5 -7 -10 -15 -10 -8 0 -15 5 -15 10 0 6 7 10 15 10 8 0 15 -4 15 -10z" id="path3263"/>
    <path d="M661 186 c-9 -10 -7 -17 6 -27 16 -12 17 -12 6 2 -10 12 -10 18 -1 27 7 7 9 12 6 12 -3 0 -11 -6 -17 -14z" id="path3265"/>
    <path d="M453 144 c-7 -19 11 -39 26 -30 16 10 13 33 -4 40 -9 3 -18 -1 -22 -10z m27 -14 c0 -5 -4 -10 -10 -10 -5 0 -10 5 -10 10 0 6 5 10 10 10 6 0 10 -4 10 -10z" id="path3267"/>
    <path d="M460 86 c-6 -8 -17 -13 -23 -11 -19 7 -40 -12 -34 -29 5 -12 17 -15 46 -12 52 4 74 21 60 47 -12 23 -32 24 -49 5z m33 -27 c-17 -17 -37 -1 -22 17 8 10 15 12 23 4 7 -7 7 -13 -1 -21z m-53 -10 c0 -5 -7 -9 -15 -9 -15 0 -20 12 -9 23 8 8 24 -1 24 -14z" id="path3269"/>
    <path d="M532 48 c-8 -10 -5 -13 13 -13 18 0 21 3 13 13 -6 6 -12 12 -13 12 -1 0 -7 -6 -13 -12z" id="path3271"/>
  </g>
  <path d="M 8.6320895,85.162828 C 7.6501362,83.886708 6.5919373,82.041899 6.2805367,81.063252 5.5237519,78.684891 5.0953434,61.919897 5.060571,33.322089 L 5.0338983,11.385703 8.1880505,8.2479364 11.342202,5.1101695 l 34.061459,0 34.061458,0 3.195755,2.9555085 3.195755,2.955508 0.01236,35.145691 0.01236,35.145686 -3.297581,3.085246 -3.297581,3.085242 -34.434366,0 -34.434369,0 -1.7853697,-2.320223 1.52e-5,0 z m 52.1950775,-0.01712 c 3.047454,-0.992734 4.069327,-3.1099 2.74092,-5.67876 -1.136811,-2.198349 -3.595939,-2.555923 -5.607782,-0.815415 -1.86448,1.613017 -2.566506,1.897345 -4.157702,1.683923 -1.235594,-0.16573 -1.611355,-0.02605 -2.606229,0.968827 -1.371119,1.37112 -1.48169,2.641473 -0.336874,3.87029 0.788876,0.846759 0.996673,0.876333 4.67161,0.664841 2.115305,-0.121737 4.498532,-0.433903 5.296057,-0.693706 l 0,0 z m 8.560545,0.571561 c 0.471928,-0.126469 0.858051,-0.499191 0.858051,-0.828263 0,-0.680003 -1.458595,-2.363579 -2.047729,-2.363579 -0.476603,0 -2.528542,1.924718 -2.528542,2.371774 0,0.733889 2.216017,1.222639 3.71822,0.820064 l 0,4e-6 z M 46.862969,80.203115 c 2.203975,-1.066923 4.78056,-4.076676 6.619581,-7.732442 2.155187,-4.284259 2.077055,-5.206629 -0.737116,-8.702042 C 47.91518,57.769089 37.054062,47.874257 33.166585,45.93166 c -2.733247,-1.365818 -4.04466,-1.443424 -6.261014,-0.370506 -2.292749,1.109902 -7.078272,6.321039 -8.549873,9.310286 l -1.204626,2.446944 0.856024,1.768313 c 1.613988,3.334054 14.25939,15.52431 20.455232,19.718989 3.425677,2.319235 5.711106,2.699412 8.400641,1.397429 l 0,0 z m 13.605995,-4.73503 c 1.466126,-1.466127 0.991441,-3.980746 -0.899283,-4.76391 -2.686157,-1.112644 -4.46805,2.367012 -2.39188,4.670829 0.738091,0.819023 2.51497,0.869278 3.291163,0.09308 l 0,0 z m 23.930469,-5.647694 c -1.001295,-1.620134 -1.008541,-2.189128 -0.0435,-3.415977 0.902143,-1.14689 0.946594,-1.421363 0.230183,-1.421363 -0.625882,0 -2.902329,2.485399 -2.893836,3.159457 0.0031,0.254884 0.142524,0.678703 0.309577,0.941824 0.417055,0.656878 2.832647,2.411676 3.037641,2.206682 0.09138,-0.09139 -0.19665,-0.753167 -0.640064,-1.470627 l 0,4e-6 z m -2.89194,-5.517397 c 1.143046,-0.966295 2.085727,-2.441162 2.085727,-3.263221 0,-0.913073 -2.735584,-3.683841 -3.637064,-3.683841 -0.894447,0 -3.608698,2.879588 -3.608698,3.82852 0,1.061298 2.585124,3.801299 3.571917,3.785911 0.447521,-0.007 1.162174,-0.307296 1.588118,-0.667373 l 0,4e-6 z M 63.763257,60.978238 c 1.079668,-1.149255 2.926156,-1.710534 5.636704,-1.713394 5.511489,-0.0058 7.11265,-3.546683 3.370061,-7.452668 -2.189494,-2.285084 -3.055702,-2.249489 -5.80299,0.23847 -1.682878,1.52402 -2.318034,1.883787 -2.959547,1.676337 -2.478886,-0.801602 -3.322914,-0.688744 -4.697779,0.628166 -2.504627,2.399042 -2.371885,4.008581 0.527702,6.398668 1.732069,1.427717 2.741217,1.485405 3.925849,0.224421 l 0,0 z M 52.174994,51.417576 c 4.366087,-2.409643 9.059339,-8.013657 10.30775,-12.308043 0.770503,-2.650425 0.507787,-4.530102 -0.923102,-6.604632 C 58.365069,27.873341 43.421331,12.87134 39.113784,9.9715218 34.720413,7.013929 30.36419,6.676988 26.493921,8.9954123 c -2.69452,1.6141107 -6.631302,5.4295917 -7.471476,7.2412637 -1.484054,3.200077 -1.91924,9.218629 -0.832212,11.50937 0.750223,1.580977 11.607176,12.269308 15.215575,14.979257 1.733863,1.302152 2.42691,2.099369 2.71814,3.1267 0.320819,1.131708 0.639511,1.448992 1.777664,1.769811 0.762721,0.214994 1.744497,0.846115 2.181724,1.402494 0.943943,1.201176 3.786233,2.929367 5.934068,3.608066 1.982071,0.626323 3.288688,0.368546 6.15759,-1.214802 l 0,4e-6 z m 18.262751,-3.647837 c 1.951227,-1.713204 2.233483,-2.3895 1.549392,-3.71239 -0.607912,-1.175575 -2.681787,-3.099722 -3.340922,-3.099722 -0.21833,0 -1.063213,0.666251 -1.877522,1.480558 -2.017037,2.017037 -2.005627,3.295307 0.04596,5.148796 0.839589,0.758517 1.691668,1.379121 1.893508,1.379121 0.201844,0 0.980153,-0.538364 1.729579,-1.196367 l 0,4e-6 z" id="path3277" inkscape:connector-curvature="0" style="fill:&fill_color;;fill-opacity:1;stroke:&fill_color;;stroke-width:0.38135594;stroke-opacity:1" transform="scale(0.8,0.8)"/>
  <path d="m 46.071183,45.738112 c -3.869111,-2.54124 -7.07899,-5.289565 -13.012572,-11.14147 -5.012837,-4.943833 -9.076439,-9.566688 -10.036981,-11.418319 -0.629524,-1.21353 1.055006,-4.271908 3.94437,-7.161272 2.720333,-2.720334 4.162212,-3.489234 5.552176,-2.96077 1.773408,0.674249 7.154717,4.974537 12.653274,10.111429 8.538443,7.976833 12.423878,12.666724 11.975163,14.454548 -0.242457,0.966026 -4.011743,5.512706 -6.79714,8.199014 l -1.681955,1.622119 -2.596335,-1.705279 0,0 z m 1.483902,-4.345201 c 2.610554,-1.61081 5.534337,-5.560875 5.522093,-7.460411 -0.0065,-1.006923 -0.286139,-1.336864 -1.964746,-2.318093 -1.076449,-0.629238 -3.878466,-3.03178 -6.226706,-5.338983 -3.193163,-3.137363 -4.527343,-4.747727 -5.292188,-6.387712 -0.877999,-1.882609 -1.169431,-2.192595 -2.060218,-2.191371 -1.383494,0.0019 -2.897805,0.971464 -5.892218,3.77259 -2.72707,2.55104 -3.463506,3.856839 -3.276688,5.81 0.107602,1.12496 0.388502,1.426826 2.26001,2.428696 3.009335,1.610981 4.229604,2.617827 8.707368,7.184463 3.530787,3.600865 5.562265,5.177883 6.697869,5.199496 0.209746,0.004 0.896186,-0.310412 1.525424,-0.698675 l 0,0 z" id="path3279" inkscape:connector-curvature="0" style="fill:&fill_color;;fill-opacity:1;stroke:&fill_color;;stroke-width:0.38135594;stroke-opacity:1" transform="scale(0.8,0.8)"/>
  <path d="M 45.526348,49.436108 C 42.415719,47.346986 32.193368,38.247225 26.936952,32.888147 21.106797,26.944126 19.144068,24.410333 19.144068,22.827891 c 0,-3.670475 7.486038,-11.7362 12.469266,-13.4348329 1.096225,-0.3736703 1.384857,-0.2963186 2.86017,0.7665089 6.718711,4.840218 22.318876,19.675923 25.255797,24.018178 l 1.475798,2.181983 -0.660223,1.728771 c -1.37846,3.609454 -6.834964,9.780106 -10.120393,11.444961 -2.391999,1.212117 -2.965353,1.200722 -4.898135,-0.09735 l 0,0 z m 3.955731,-0.859047 c 1.462228,-0.55594 6.065249,-5.115954 7.826363,-7.753241 2.071743,-3.10246 2.008975,-4.104809 -0.461994,-7.377777 C 52.419716,27.582537 42.107479,17.460347 36.09497,13.077 33.192408,10.960922 32.14656,10.788691 29.7192,12.027038 c -1.860756,0.949287 -6.056023,4.862617 -7.203682,6.719568 -1.92678,3.117596 -1.490098,6.109878 1.410775,9.667061 3.753837,4.603129 22.548347,20.552435 24.218792,20.552435 0.172556,0 0.774203,-0.175069 1.336994,-0.389041 z" id="path3281" inkscape:connector-curvature="0" style="fill:&fill_color;;fill-opacity:1;stroke:&fill_color;;stroke-width:0.38135594;stroke-opacity:1" transform="scale(0.8,0.8)"/>
  <path d="m 39.115183,33.121289 c -1.733504,-1.793036 -3.260655,-3.602955 -3.393668,-4.022041 -0.332325,-1.047065 2.210871,-4.15857 3.399018,-4.15857 0.941177,0 7.862518,6.740119 7.862518,7.656653 0,0.802314 -3.122617,3.784025 -3.962845,3.784025 -0.445489,0 -2.040827,-1.331851 -3.905023,-3.260067 z" id="path3283" inkscape:connector-curvature="0" style="fill:&fill_color;;fill-opacity:1;stroke:&fill_color;;stroke-width:0.38135594;stroke-opacity:1" transform="scale(0.8,0.8)"/>
  <path d="m 32.993666,25.086733 c -0.348471,-0.908102 0.36191,-2.597218 1.156666,-2.750274 0.993567,-0.191344 2.536109,0.260195 2.536109,0.742379 0,0.5858 -2.262406,2.624552 -2.912469,2.624552 -0.29902,0 -0.650157,-0.277496 -0.780306,-0.616657 z" id="path3285" inkscape:connector-curvature="0" style="fill:&fill_color;;fill-opacity:1;stroke:&fill_color;;stroke-width:0.38135594;stroke-opacity:1" transform="scale(0.8,0.8)"/>
  <path d="M 45.080805,45.156336 C 39.190936,41.056322 26.505408,28.650724 23.675556,24.223432 c -1.024943,-1.603519 -1.044998,-1.725313 -0.499189,-3.031617 1.292894,-3.094332 5.798676,-7.750344 8.046152,-8.314425 0.61621,-0.154659 1.491022,0.166044 2.887127,1.058409 6.89175,4.405083 22.231137,19.519395 23.026586,22.688718 0.161531,0.643592 -0.08304,1.396283 -0.811247,2.496676 -1.068091,1.613995 -7.358499,8.331902 -7.775541,8.30397 -0.127406,-0.0085 -1.688294,-1.029505 -3.468639,-2.268827 l 0,0 z m 3.131443,-4.267439 c 1.260334,-0.887592 3.407853,-3.491076 4.252974,-5.155976 1.024971,-2.019204 0.811189,-2.615778 -1.483073,-4.138622 -3.50148,-2.32415 -9.357562,-8.182047 -11.085928,-11.089364 -2.00032,-3.364776 -2.622258,-3.48153 -5.804226,-1.089601 -4.375423,3.289064 -6.337011,6.268904 -5.618007,8.534287 0.146623,0.461966 1.320649,1.349821 2.842055,2.149298 1.929994,1.014183 3.87216,2.626895 7.602309,6.312712 2.755541,2.722793 5.397047,5.10445 5.870014,5.292571 1.028057,0.408907 2.021452,0.172357 3.423882,-0.815305 l 0,0 z" id="path3287" inkscape:connector-curvature="0" style="fill:&fill_color;;fill-opacity:1;stroke:&fill_color;;stroke-width:0.38135594;stroke-opacity:1" transform="scale(0.8,0.8)"/>
  <path d="M 45.366982,49.334472 C 40.44083,46.071524 25.738303,32.317278 21.349706,26.866258 c -2.160054,-2.682975 -2.277193,-2.933491 -2.101313,-4.493899 0.443813,-3.937495 7.866365,-11.74398 12.403682,-13.0452659 1.088963,-0.3123106 1.440104,-0.180159 3.447114,1.2973179 8.099266,5.96234 23.517174,20.929357 25.49018,24.744726 0.513561,0.993117 0.506792,1.275844 -0.06647,2.776913 -1.378327,3.609098 -6.745464,9.68834 -10.017174,11.346239 -2.505088,1.269427 -3.007284,1.254001 -5.138743,-0.157817 z m 5.568905,-1.823583 c 3.706575,-2.508441 8.238308,-8.844255 7.741558,-10.823466 -0.884326,-3.523429 -18.050635,-20.97751 -24.19182,-24.597365 -2.119733,-1.249453 -3.51806,-0.997624 -6.451528,1.161873 -4.233022,3.116172 -6.601894,6.481194 -6.601894,9.378099 0,2.089754 1.040083,4.029812 3.710784,6.921699 3.914846,4.239072 16.81305,15.396838 21.258811,18.390222 1.701559,1.145681 2.28639,1.09008 4.534089,-0.431062 l 0,0 z" id="path3289" inkscape:connector-curvature="0" style="fill:&fill_color;;fill-opacity:1;stroke:&fill_color;;stroke-width:0.38135594;stroke-opacity:1" transform="scale(0.8,0.8)"/>
  <path d="M 45.838983,49.698271 C 41.165068,46.792808 24.543087,31.266317 20.825124,26.332976 c -2.553858,-3.388698 -2.322668,-4.917032 1.467811,-9.703264 2.827579,-3.570381 6.641131,-6.523104 9.474236,-7.335628 1.281752,-0.3676015 2.298018,0.2766343 8.351473,5.294199 5.759571,4.773971 18.649495,17.666965 20.01947,20.024236 1.004755,1.728847 1.043749,1.947735 0.577476,3.241525 -1.724217,4.784262 -8.752414,11.955735 -12.22759,12.476866 -0.942246,0.141296 -1.692092,-0.03778 -2.649017,-0.632639 z m 7.601431,-4.550386 c 2.396893,-2.434396 4.728241,-5.730571 5.095449,-7.204197 0.488753,-1.961376 -2.76459,-6.216543 -10.978183,-14.35878 -8.808888,-8.732362 -13.008446,-11.987675 -15.468187,-11.990262 -3.633534,-0.0038 -10.676549,7.200153 -10.648914,10.892283 0.01195,1.596406 1.261021,4.139561 3.128888,6.370523 2.876675,3.435872 16.769219,15.488794 21.599472,18.739315 l 2.014877,1.355911 1.517407,-0.774122 c 0.834575,-0.425769 2.51721,-1.789571 3.739191,-3.030671 l 0,0 z" id="path3291" inkscape:connector-curvature="0" style="fill:&fill_color;;fill-opacity:1;stroke:&fill_color;;stroke-width:0.38135594;stroke-opacity:1" transform="scale(0.8,0.8)"/>
  <path d="M 46.084504,49.918748 C 42.361106,47.976834 24.399228,31.232691 20.811582,26.359219 18.738379,23.542972 18.650423,22.19787 20.344773,19.220339 22.095658,16.143455 26.86307,11.589906 29.89767,10.095977 32.27274,8.9267337 32.465654,8.8914999 33.498093,9.4383978 37.85927,11.748576 56.48947,29.227605 59.907665,34.216107 c 1.027682,1.499793 1.216449,2.071678 1.023429,3.100553 -0.584572,3.116054 -7.191909,10.87119 -10.566979,12.402635 -2.003428,0.909061 -2.843916,0.94823 -4.279611,0.199453 z m 4.559549,-2.433749 c 3.72646,-2.755431 7.779676,-8.067003 7.779676,-10.194943 0,-1.893485 -2.741093,-5.261881 -11.015979,-13.537003 C 39.265873,15.610943 34.314043,11.59322 32.420797,11.59322 c -1.749828,0 -3.628554,1.063271 -6.308736,3.57045 -4.421761,4.136341 -5.380817,7.029472 -3.537323,10.670844 2.051631,4.052493 23.238883,22.750232 25.779317,22.750232 0.441483,0 1.471981,-0.494886 2.289998,-1.099747 l 0,0 z" id="path3293" inkscape:connector-curvature="0" style="fill:&fill_color;;fill-opacity:1;stroke:&fill_color;;stroke-width:0.38135594;stroke-opacity:1" transform="scale(0.8,0.8)"/>
  <path d="m 69.101695,56.974576 c -1.294628,-1.294628 -0.855577,-4.194915 0.635035,-4.194915 0.653268,0 3.178524,2.250904 3.178524,2.833199 0,0.669207 -1.649502,2.124428 -2.408053,2.124428 -0.353537,0 -0.986015,-0.34322 -1.405506,-0.762712 z" id="path3295" inkscape:connector-curvature="0" style="fill:&fill_color;;fill-opacity:1;stroke:&fill_color;;stroke-width:0.38135594;stroke-opacity:1" transform="scale(0.8,0.8)"/>
  <path d="m 59.717004,57.918195 c -0.59207,-0.903613 -0.587949,-1.01083 0.06665,-1.734153 0.925279,-1.022421 2.486001,-0.82779 3.08749,0.385028 1.055691,2.128652 -1.833615,3.364499 -3.154139,1.349125 z" id="path3297" inkscape:connector-curvature="0" style="fill:&fill_color;;fill-opacity:1;stroke:&fill_color;;stroke-width:0.38135594;stroke-opacity:1" transform="scale(0.8,0.8)"/>
  <path d="m 67.837551,45.38969 c -0.368307,-0.959792 1.280297,-1.899293 1.814909,-1.034274 0.364547,0.589851 -0.215093,1.559838 -0.932121,1.559838 -0.374611,0 -0.771865,-0.236503 -0.882788,-0.525564 z" id="path3299" inkscape:connector-curvature="0" style="fill:&fill_color;;fill-opacity:1;stroke:&fill_color;;stroke-width:0.38135594;stroke-opacity:1" transform="scale(0.8,0.8)"/>
  <path d="m 79.412169,61.758231 c -0.253485,-0.305431 -0.350175,-0.734456 -0.214866,-0.95339 0.394121,-0.637701 2.483108,-0.476154 2.747355,0.212461 0.441228,1.149823 -1.678454,1.769977 -2.532489,0.740929 z" id="path3301" inkscape:connector-curvature="0" style="fill:&fill_color;;fill-opacity:1;stroke:&fill_color;;stroke-width:0.38135594;stroke-opacity:1" transform="scale(0.8,0.8)"/>
  <path d="" id="path3303" inkscape:connector-curvature="0" style="fill:&fill_color;;fill-opacity:1;stroke:&fill_color;;stroke-width:0.38135594;stroke-opacity:1" transform="scale(0.8,0.8)"/>
  <path d="m 58.026488,74.307132 c -0.404729,-0.48767 -0.382871,-0.698933 0.124844,-1.206648 0.863409,-0.863409 1.974311,-0.0072 1.395034,1.075154 -0.469524,0.877312 -0.872004,0.912133 -1.519878,0.131494 z" id="path3305" inkscape:connector-curvature="0" style="fill:&fill_color;;fill-opacity:1;stroke:&fill_color;;stroke-width:0.38135594;stroke-opacity:1" transform="scale(0.8,0.8)"/>
  <path d="m 51.239473,84.791724 c -1.100411,-1.181152 -1.04111,-1.726724 0.337541,-3.105374 0.963125,-0.963126 1.377579,-1.126736 2.424039,-0.956919 1.29815,0.21066 1.669932,0.06303 4.360569,-1.73155 0.864806,-0.5768 1.909435,-1.048728 2.321398,-1.048728 1.212473,0 2.701727,1.575625 2.94724,3.118169 0.184624,1.159986 0.05828,1.566943 -0.731749,2.356972 -1.191985,1.191984 -2.949072,1.667758 -7.368784,1.995277 -3.299325,0.244494 -3.50568,0.214295 -4.290254,-0.627847 z m 2.894002,0.162828 c 0.960738,-0.257468 1.205546,-1.929091 0.400423,-2.734213 -0.589926,-0.589926 -2.308378,-0.589926 -2.898305,0 -0.674371,0.674372 -0.556341,2.11647 0.209746,2.562674 0.782435,0.455727 1.130362,0.481811 2.288136,0.171539 z m 7.549114,-2.221116 c 1.135515,-1.135515 1.179822,-1.871025 0.173343,-2.877504 -1.023575,-1.023575 -1.759841,-0.960557 -2.878379,0.246365 -2.296745,2.478229 0.316292,5.019883 2.705036,2.631139 z" id="path3307" inkscape:connector-curvature="0" style="fill:&fill_color;;fill-opacity:1;stroke:&fill_color;;stroke-width:0.38135594;stroke-opacity:1" transform="scale(0.8,0.8)"/>
  <path d="M 39.927966,76.845029 C 34.450599,73.693911 20.289178,59.554183 20.288375,57.235522 c -3.14e-4,-0.906702 0.557891,-1.921715 2.40362,-4.370631 1.714269,-2.274494 2.382763,-2.440965 0.871567,-0.21704 -1.669327,2.456637 -1.17988,3.269055 0.752802,1.249551 1.708348,-1.785093 4.366722,-3.405877 5.586244,-3.405877 1.539491,0 3.576693,1.129309 6.988739,3.874158 6.122901,4.925622 12.761195,12.122981 12.761195,13.83592 0,1.084044 -1.754588,3.577381 -4.504249,6.400712 -1.169226,1.200553 -2.014723,2.293966 -1.878882,2.429807 0.441304,0.441305 3.598059,-1.694794 5.208747,-3.524632 1.755808,-1.994703 2.885793,-5.123059 2.480459,-6.867134 -0.558458,-2.402938 -15.562533,-15.8962 -19.510181,-17.545633 -0.92296,-0.385637 -1.645955,-0.421266 -2.860834,-0.140983 -2.656957,0.612984 -2.871715,0.451955 -1.276183,-0.956903 0.821492,-0.725379 1.888565,-1.318871 2.371273,-1.318871 1.351181,0 9.223558,6.152884 15.08921,11.79341 5.826722,5.603089 7.931488,8.192519 7.931488,9.757872 0,2.330879 -3.916228,7.622309 -6.604474,8.923667 -2.237903,1.08335 -3.896504,1.000598 -6.17095,-0.307886 z m 1.334746,-1.156372 c 0,-0.194544 -0.491646,-0.752277 -1.092548,-1.239407 C 33.659217,69.171048 24.898079,60.949681 23.27537,58.595339 c -1.220913,-1.771388 -2.466686,-2.243397 -2.013025,-0.762712 0.797933,2.604335 12.90017,14.22698 18.140904,17.42201 1.418094,0.864545 1.859463,0.967566 1.859463,0.43402 z m 2.276747,-4.467169 c 1.33836,-0.790588 3.544404,-4.384724 3.378337,-5.504059 -0.085,-0.572915 -0.924341,-1.321336 -2.604237,-2.322135 -1.55156,-0.924342 -3.915198,-2.97207 -6.31868,-5.47416 -3.472658,-3.61513 -3.970334,-3.997405 -5.204139,-3.997405 -1.094728,0 -1.608026,0.277621 -2.598012,1.405153 -1.534725,1.747955 -2.639457,4.128453 -2.650454,5.711251 -0.0072,1.043264 0.209616,1.311559 1.612387,1.994768 0.89142,0.434159 3.336864,2.26366 5.434322,4.065557 5.492876,4.718855 6.867221,5.351639 8.950476,4.12103 z" id="path3309" inkscape:connector-curvature="0" style="fill:&fill_color;;fill-opacity:1;stroke:&fill_color;;stroke-width:0.38135594;stroke-opacity:1" transform="scale(0.8,0.8)"/>
  <path d="m 38.201379,67.025032 c -1.348463,-0.897412 -4.947142,-4.427702 -4.947142,-4.853127 0,-0.197113 0.449606,-0.94785 0.999125,-1.668306 l 0.999124,-1.30992 1.575028,1.500692 c 0.866266,0.82538 2.175664,1.905208 2.909774,2.399617 2.223444,1.497447 2.292872,1.753055 0.91949,3.385227 -1.146371,1.362385 -1.207871,1.376056 -2.455399,0.545817 z" id="path3311" inkscape:connector-curvature="0" style="fill:&fill_color;;fill-opacity:1;stroke:&fill_color;;stroke-width:0.38135594;stroke-opacity:1" transform="scale(0.8,0.8)"/>
  <path d="M 40.127112,76.963936 C 34.428595,73.706845 20.285508,59.650202 20.289561,57.247634 c 0.0016,-0.930334 1.007154,-2.73676 2.762341,-4.962254 1.490298,-1.889626 1.696758,-1.602435 0.450722,0.626966 -1.137737,2.035633 -0.559026,2.475401 1.00929,0.76697 1.469675,-1.600977 4.208729,-3.187791 5.502556,-3.187791 1.666752,0 4.942775,2.08091 9.454581,6.005492 4.26931,3.713647 9.710077,9.71744 10.059448,11.100428 0.334244,1.323108 -0.62149,2.992938 -3.522056,6.153631 -2.757993,3.005334 -2.781697,3.839773 -0.0558,1.964307 4.144099,-2.851216 5.937022,-7.542197 4.049784,-10.595811 -1.032154,-1.670061 -9.964199,-9.931782 -13.863034,-12.822654 -2.922905,-2.167249 -5.687049,-3.810738 -5.982122,-3.556817 -0.07841,0.06747 -1.086415,0.231839 -2.240017,0.365259 l -2.097457,0.242582 1.493622,-1.334988 c 0.821492,-0.734243 1.865606,-1.334988 2.320252,-1.334988 2.319777,0 17.78689,13.305351 21.761796,18.720256 1.67061,2.275826 1.661526,3.429271 -0.04946,6.280992 -1.729266,2.882184 -3.342742,4.552791 -5.322886,5.511362 -2.098513,1.015873 -3.837105,0.94902 -5.894006,-0.22664 z m 0.902962,-1.398258 C 40.915289,75.303496 39.513593,73.973517 37.915194,72.610169 30.518422,66.301126 23.997377,60.001613 22.519282,57.737288 22.17699,57.212924 21.771759,56.904614 21.618769,57.052156 c -0.778267,0.750547 0.61465,2.690645 5.26764,7.336935 7.040469,7.030332 15.125544,13.419308 14.143665,11.176587 z m 3.164635,-4.934945 C 45.350481,69.552114 47.15919,65.992125 46.897675,65.310625 46.779217,65.00193 45.55474,64.089942 44.176614,63.283984 42.703213,62.422306 40.29475,60.412261 38.33049,58.40495 c -1.837243,-1.877511 -3.683378,-3.653858 -4.102523,-3.947438 -1.874597,-1.313019 -3.768245,-0.165358 -5.523748,3.347716 -1.661658,3.325271 -1.569046,4.088404 0.646615,5.328144 0.99327,0.55577 3.607852,2.512157 5.810183,4.347528 2.20233,1.83537 4.519068,3.565857 5.148305,3.845525 1.371656,0.609642 2.751401,0.362594 3.885387,-0.695692 l 0,0 z" id="path3313" inkscape:connector-curvature="0" style="fill:&fill_color;;fill-opacity:1;stroke:&fill_color;;stroke-width:0.38135594;stroke-opacity:1" transform="scale(0.8,0.8)"/>
  <path d="M 8.6545178,85.290254 C 7.7032839,84.084216 6.654657,82.239407 6.3242358,81.190678 5.5041341,78.587744 5.0860557,63.049149 5.0568144,34.084801 L 5.0338983,11.385703 8.1880505,8.2479364 11.342202,5.1101695 l 34.067534,0 34.067533,0 3.202043,2.9070369 3.202044,2.9070366 -0.02868,35.323897 -0.02868,35.323894 -3.200594,2.955508 -3.200595,2.955509 -34.519389,0 -34.519388,0 -1.7295162,-2.192797 0,0 z M 60.414006,85.189206 c 1.910411,-0.545491 3.730062,-2.128458 3.730062,-3.244889 0,-3.753389 -3.503597,-5.616514 -6.183763,-3.288378 -1.736813,1.508686 -2.707063,1.959742 -3.672484,1.707277 -1.216339,-0.318078 -3.065824,0.589515 -3.699874,1.815628 -0.752728,1.455616 -0.708483,1.752239 0.431402,2.892123 0.956776,0.956772 1.087169,0.978727 4.480932,0.754326 1.922514,-0.127121 4.133692,-0.41336 4.913725,-0.636087 l 0,0 z m 9.821601,0.130218 c 0.280327,-0.260504 -0.867367,-2.099219 -1.593469,-2.552888 -0.510902,-0.319214 -0.858196,-0.210897 -1.620763,0.505499 -1.208322,1.135159 -1.257574,2.194772 -0.112477,2.419833 0.871826,0.171351 2.997633,-0.06665 3.326709,-0.372444 l 0,0 z m -23.92039,-4.876009 c 2.593514,-1.083638 6.784882,-6.249104 8.130363,-10.019902 0.744781,-2.087302 0.658369,-3.447782 -0.305485,-4.809558 C 51.159352,61.40263 40.66197,51.142672 35.733051,47.623233 32.678512,45.442175 29.946119,44.545225 28.156094,45.135988 25.163655,46.123581 20.145905,51.231085 18.13774,55.333541 l -0.970121,1.981849 1.083564,2.002969 c 1.921219,3.551377 15.111084,16.146485 20.487659,19.563827 3.38352,2.150561 5.246915,2.534541 7.576375,1.561229 l 0,0 z m 14.210424,-5.168677 c 1.561034,-1.724927 0.381665,-4.571348 -1.894069,-4.571348 -1.576919,0 -2.114623,0.601219 -2.114623,2.364407 0,2.570438 2.456051,3.922589 4.008692,2.206941 l 0,0 z m 23.856258,-5.297591 c -0.991903,-1.393002 -0.990927,-2.098014 0.0051,-3.709678 0.509896,-0.825048 0.628295,-1.284418 0.331036,-1.284418 -0.549412,0 -3.031642,2.551412 -3.031642,3.116135 0,0.539825 2.489251,2.98556 3.038678,2.98556 0.260928,0 0.118747,-0.458829 -0.34322,-1.107599 l 0,0 z m -2.536296,-6.161652 c 0.731376,-0.642153 1.436179,-1.502805 1.566229,-1.912557 0.319043,-1.005212 -1.121842,-3.268449 -2.551542,-4.007776 -1.123356,-0.580912 -1.149826,-0.57039 -2.854948,1.134732 -1.378404,1.378403 -1.670957,1.895617 -1.469346,2.597709 0.3065,1.067343 2.635536,3.355448 3.415473,3.355448 0.310401,0 1.162762,-0.525398 1.894134,-1.167556 z M 63.763257,60.978234 c 1.056329,-1.124413 2.919043,-1.71045 5.446026,-1.713394 3.616143,-0.0042 5.942189,-1.828968 5.41149,-4.245232 -0.340749,-1.551416 -3.437351,-4.910613 -4.522534,-4.906048 -0.443227,0.0019 -1.823129,0.874087 -3.066453,1.938276 -1.858542,1.590769 -2.435045,1.891266 -3.241525,1.689605 -3.004154,-0.751195 -3.040986,-0.743896 -4.619505,0.915471 -2.072353,2.1785 -2.025809,3.266802 0.236471,5.529082 1.996673,1.996676 3.045344,2.1874 4.35603,0.79224 l 0,0 z M 52.159885,51.429139 c 2.656446,-1.526938 7.36965,-6.415475 8.809059,-9.136766 C 63.681842,37.163483 63.4963,34.837435 60.047336,30.738494 55.737389,25.61631 50.875059,20.529183 45.844208,15.878716 39.678508,10.179206 38.312767,9.2019756 34.9874,8.1103349 32.733227,7.3703419 32.177502,7.322081 30.182606,7.6930709 27.369146,8.2162885 24.554164,10.03263 21.50495,13.292251 c -2.705886,2.892599 -3.440634,4.761172 -3.760863,9.564422 -0.258812,3.88202 -0.04213,4.551319 2.38544,7.368333 1.826617,2.119651 11.601413,11.186998 13.982761,12.970761 1.008065,0.755096 1.811441,1.666716 1.811441,2.055512 0,0.907296 1.669726,2.570755 2.58044,2.570755 0.389581,0 1.063127,0.479891 1.49677,1.066424 0.85967,1.162765 4.920025,3.49105 6.774647,3.884709 1.575152,0.334342 3.147006,-0.05802 5.384299,-1.344028 l 0,0 z m 18.809085,-4.19241 c 1.597549,-1.819507 1.52047,-2.891357 -0.341851,-4.753678 -0.838983,-0.838983 -1.697225,-1.525424 -1.907203,-1.525424 -0.757838,0 -3.43178,3.145477 -3.43178,4.036954 0,0.491774 0.532609,1.500742 1.183572,2.242148 1.589732,1.810605 2.90753,1.810605 4.497262,0 l 0,0 z" id="path3315" inkscape:connector-curvature="0" style="fill:&fill_color;;fill-opacity:1;stroke:&fill_color;;stroke-width:0.38135594;stroke-opacity:1" transform="scale(0.8,0.8)"/>
</svg>